<svg width="25.000000" height="25.000000" viewBox="0 0 25 25" fill="none" xmlns="http://www.w3.org/2000/svg" xmlns:xlink="http://www.w3.org/1999/xlink">
	<desc>
			Created with Pixso.
	</desc>
	<defs>
		<clipPath id="clip1642_1494">
			<rect id="Frame 1220" rx="8.250000" width="12.000000" height="12.000000" transform="translate(12.500000 0.500000)" fill="white" fill-opacity="0"/>
		</clipPath>
	</defs>
	<rect id="Profile-stroke" width="24.000000" height="24.000000" transform="translate(0.000000 1.000000)" fill="#FFFFFF" fill-opacity="0"/>
	<path id="Subtract" d="M4.06079 21.0025C3.99292 21.5506 4.44763 22 4.99988 22C5.55212 22 5.99048 21.5493 6.08142 21.0045C6.099 20.8991 6.11951 20.7943 6.1427 20.6902C6.22058 20.3422 6.3302 20.0014 6.47156 19.6677C6.61072 19.339 6.77625 19.0274 6.96802 18.7329C7.19495 18.3845 7.45874 18.0599 7.75928 17.7594C8.05981 17.4589 8.38428 17.1951 8.73279 16.9682C9.02722 16.7764 9.33887 16.6109 9.66748 16.4717C10.0012 16.3303 10.3422 16.2207 10.6901 16.1429C11.1161 16.0476 11.5526 16 11.9999 16C12.4471 16 12.8838 16.0476 13.3097 16.1429C13.6576 16.2207 13.9985 16.3303 14.3323 16.4717C14.6609 16.6109 14.9725 16.7764 15.267 16.9682C15.6154 17.1951 15.9399 17.4589 16.2405 17.7594C16.541 18.06 16.8048 18.3845 17.0317 18.733C17.2235 19.0274 17.389 19.339 17.5282 19.6677C17.6696 20.0014 17.7792 20.3422 17.8571 20.6902C17.8802 20.7943 17.9008 20.8991 17.9183 21.0045C18.0093 21.5493 18.4476 22 18.9999 22C19.5521 22 20.0068 21.5506 19.939 21.0025C19.9093 20.7633 19.8689 20.5265 19.8176 20.2921C19.7133 19.8141 19.564 19.3459 19.3698 18.8876C19.1799 18.4393 18.9535 18.0151 18.6907 17.6149C18.3923 17.1608 18.047 16.7375 17.6547 16.3452C17.2623 15.9529 16.8391 15.6075 16.385 15.3093C15.9849 15.0463 15.5605 14.8199 15.1123 14.6301C14.6539 14.4359 14.1858 14.2866 13.7079 14.1822C13.1519 14.0607 12.5825 14 11.9999 14C11.4172 14 10.848 14.0607 10.292 14.1822C9.81396 14.2866 9.34583 14.4359 8.88745 14.6301C8.43921 14.8199 8.01501 15.0463 7.61475 15.3093C7.16064 15.6075 6.73743 15.9529 6.34509 16.3452C5.95276 16.7375 5.60742 17.1608 5.30908 17.6149C5.04626 18.0151 4.81982 18.4393 4.63 18.8876C4.43579 19.3459 4.2865 19.814 4.18213 20.292C4.13086 20.5265 4.09045 20.7633 4.06079 21.0025Z" clip-rule="evenodd" fill="#34AADD" fill-opacity="1.000000" fill-rule="evenodd"/>
	<path id="Fill 3" d="M16 8C16 5.79401 14.2061 4 12 4C9.79395 4 8 5.79401 8 8C8 10.206 9.79395 12 12 12C14.2061 12 16 10.206 16 8Z" stroke="#34AADD" stroke-opacity="1.000000" stroke-width="2.000000"/>
</svg>
