<svg width="135.041077" height="30.318420" viewBox="0 0 135.041 30.3184" fill="none" xmlns="http://www.w3.org/2000/svg" xmlns:xlink="http://www.w3.org/1999/xlink">
	<desc>
			Created with Pixso.
	</desc>
	<defs>
		<clipPath id="clip1642_1539">
			<rect id="логотип" width="135.041077" height="30.318409" fill="white" fill-opacity="0"/>
		</clipPath>
	</defs>
	<g clip-path="url(#clip1642_1539)">
		<path id="Ellipse 4 (Stroke)" d="M14.8018 0.086731C17.9453 0.012146 21.0333 0.922363 23.6339 2.68994C26.2344 4.45752 28.2172 6.99396 29.305 9.94427C30.3927 12.8946 30.5309 16.1112 29.7002 19.1439C29.3326 20.4861 27.9466 21.2761 26.6045 20.9085C25.2623 20.5409 24.4723 19.1548 24.8399 17.8127C25.393 15.7935 25.301 13.6519 24.5768 11.6875C23.8525 9.72314 22.5324 8.03448 20.8011 6.85773C19.0698 5.68097 17.0139 5.07501 14.9213 5.12463C12.8286 5.17426 10.8038 5.87695 9.13022 7.13446C7.45662 8.39197 6.21797 10.1413 5.58765 12.1378C4.95734 14.1342 4.96692 16.2778 5.61505 18.2686C6.2632 20.2593 7.51744 21.9976 9.20221 23.2401C10.887 24.4825 12.918 25.1671 15.011 25.198C16.4024 25.2186 17.5137 26.3632 17.4932 27.7546C17.4726 29.1461 16.328 30.2574 14.9366 30.2368C11.7926 30.1904 8.74184 29.162 6.21121 27.2958C3.68059 25.4295 1.79675 22.8187 0.823288 19.8287C-0.150177 16.8387 -0.164566 13.6191 0.78212 10.6206C1.72882 7.62201 3.58923 4.99445 6.10307 3.10565L7.61665 5.12006L6.10307 3.10565C8.61693 1.2168 11.6584 0.161255 14.8018 0.086731Z" fill="#121920" fill-opacity="1.000000" fill-rule="evenodd"/>
		<path id="Ellipse 5" d="M26.4992 24.9706C26.4992 27.0804 24.7888 28.7908 22.6789 28.7908C20.5691 28.7908 18.8587 27.0804 18.8587 24.9706C18.8587 22.8608 20.5691 21.1504 22.6789 21.1504C24.7888 21.1504 26.4992 22.8608 26.4992 24.9706Z" fill="#F95A59" fill-opacity="1.000000" fill-rule="nonzero"/>
		<path id="Vector" d="M60.8326 24.1172L55.8529 24.1172L55.1493 23.1971C54.175 23.576 53.3089 23.8466 52.5511 24.0631C51.7934 24.2255 50.9815 24.3337 50.0613 24.3337C47.0302 24.3337 44.6486 23.576 42.9706 22.1146C41.1844 20.599 40.3184 18.2715 40.3184 15.2945C40.3184 12.2634 41.1303 9.93591 42.7 8.36621C44.3238 6.79651 46.7595 5.98462 50.0613 5.98462C53.2548 5.98462 55.6905 6.85065 57.3685 8.52863C58.8299 9.99005 59.5336 11.8845 59.5336 14.1578C59.5336 15.8358 59.4794 17.0807 59.3171 17.8385C59.1005 19.0293 58.5593 20.166 57.8015 21.1944L60.8326 24.1172ZM55.1493 15.1321C55.1493 13.5083 54.8245 12.2092 54.1208 11.1808C53.2548 9.88177 51.8475 9.23224 50.0072 9.23224C48.2751 9.23224 46.9219 9.71942 46.0559 10.7478C45.1898 11.7221 44.7568 13.1835 44.7568 15.078C44.7568 17.189 45.244 18.7587 46.2724 19.733C47.1926 20.599 48.5457 21.032 50.3319 21.032C51.9557 21.032 53.1466 20.5449 53.9585 19.5706C54.7704 18.5422 55.1493 17.0807 55.1493 15.1321Z" fill="#F95A59" fill-opacity="1.000000" fill-rule="evenodd"/>
		<path id="Vector" d="M79.6152 18.5422C79.6152 20.1118 79.0739 21.4109 78.0455 22.4934C77.0171 23.576 75.718 24.0631 74.0942 24.0631L61.6449 24.0631L61.6449 20.8696L71.9832 20.8696C72.6869 20.8696 73.2823 20.7072 73.7153 20.3824C74.2566 20.0036 74.5272 19.5164 74.5272 18.8669C74.5272 17.3513 73.4447 16.5936 71.3337 16.5936L66.1375 16.5936C64.6219 16.5936 63.3229 16.1064 62.1862 15.1863C61.0495 14.2661 60.5083 13.0753 60.5083 11.6138C60.5083 10.0442 61.0495 8.74512 62.1862 7.77081C63.2688 6.79651 64.7302 6.30939 66.5705 6.30939L78.5326 6.30939L78.5326 9.34052L67.9237 9.34052C67.4366 9.34052 66.9494 9.55701 66.5164 9.93591C65.9751 10.3148 65.7586 10.8019 65.7586 11.3432C65.7586 11.9386 65.9751 12.4799 66.4623 12.8588C66.9494 13.2918 67.4907 13.4542 68.1402 13.4542L73.8777 13.4542C75.6639 13.4542 77.0712 13.9413 78.0996 14.8615C79.1281 15.7817 79.6152 17.0266 79.6152 18.5422Z" fill="#F95A59" fill-opacity="1.000000" fill-rule="evenodd"/>
		<path id="Vector" d="M100.075 15.1321C100.075 18.5963 99.1009 21.032 97.2065 22.5475C95.6368 23.7384 93.3634 24.3337 90.4406 24.3337C87.1388 24.3337 84.7031 23.6301 83.1334 22.2769C81.4013 20.7614 80.5353 18.3256 80.5353 14.9697C80.5353 12.2093 81.2931 10.0442 82.8628 8.52863C84.5407 6.85065 87.0306 6.03876 90.3865 6.03876C94.0671 6.03876 96.6111 6.85065 98.1267 8.42035C99.4257 9.82764 100.075 12.0469 100.075 15.1321ZM95.5285 15.0239C95.5285 13.2918 95.0955 11.8845 94.2836 10.8561C93.3634 9.71942 91.9561 9.12402 90.1699 9.12402C88.3837 9.12402 87.0306 9.71942 86.1104 10.9644C85.3526 11.9927 84.9737 13.3459 84.9737 14.9697C84.9737 16.8642 85.2985 18.2715 85.8939 19.1917C86.7599 20.4366 88.2755 21.0861 90.603 21.0861C92.5515 21.0861 93.9047 20.4907 94.6625 19.2458C95.2579 18.3798 95.5285 16.9183 95.5285 15.0239Z" fill="#F95A59" fill-opacity="1.000000" fill-rule="evenodd"/>
		<path id="Vector" d="M117.883 16.6477L105.65 16.6477L105.65 24.009L101.266 24.009L101.266 13.1294C101.266 12.4799 101.374 11.7221 101.645 10.9102C102.132 9.44879 103.052 8.36621 104.405 7.60846C105.975 6.74243 108.573 6.30939 112.145 6.30939C119.777 6.30939 127.409 6.30939 135.041 6.30939L135.041 9.28638L128.438 9.28638L128.438 24.009L124.324 24.009L124.324 9.28638C120.102 9.28638 116.097 9.23224 111.875 9.23224C110.251 9.23224 109.114 9.34052 108.465 9.50287C107.328 9.77356 106.57 10.423 106.083 11.3432C105.704 12.0469 105.542 12.8047 105.542 13.6707L117.883 13.6707L117.883 16.6477Z" fill="#F95A59" fill-opacity="1.000000" fill-rule="evenodd"/>
	</g>
</svg>
